HIERARCHY
ROOT Hips
{
    OFFSET   0.000000   0.000000   0.000000
    CHANNELS 6 Xposition Yposition Zposition Zrotation Xrotation Yrotation
    JOINT Chest
    {
        OFFSET   0.000000   8.007230   0.000000
        CHANNELS 3 Zrotation Xrotation Yrotation
        JOINT Chest2
        {
            OFFSET   0.000000  22.077100   0.000000
            CHANNELS 3 Zrotation Xrotation Yrotation
            JOINT Neck
            {
                OFFSET   0.000000  23.254800  -0.000021
                CHANNELS 3 Zrotation Xrotation Yrotation
                JOINT Head
                {
                    OFFSET   0.000000  14.370000   1.956610
                    CHANNELS 3 Zrotation Xrotation Yrotation
                    End Site
                    {
                        OFFSET   0.000000  19.566000   0.000000
                    }
                }
            }
            JOINT LeftCollar
            {
                OFFSET   3.911900  19.017000  -0.467063
                CHANNELS 3 Zrotation Xrotation Yrotation
                JOINT LeftShoulder
                {
                    OFFSET  10.383700   0.000000   0.000000
                    CHANNELS 3 Zrotation Xrotation Yrotation
                    JOINT LeftElbow
                    {
                        OFFSET  26.662100   0.001529   0.000325
                        CHANNELS 3 Zrotation Xrotation Yrotation
                        JOINT LeftWrist
                        {
                            OFFSET  28.869000  -0.000011  -0.000096
                            CHANNELS 3 Zrotation Xrotation Yrotation
                            JOINT LeftFinger0
                            {
                                OFFSET   2.044650  -2.323460   3.252850
                                CHANNELS 3 Zrotation Xrotation Yrotation
                                JOINT LeftFinger01
                                {
                                    OFFSET   3.088130   0.000000   0.000000
                                    CHANNELS 3 Zrotation Xrotation Yrotation
                                    JOINT LeftFinger02
                                    {
                                        OFFSET   2.639460   0.000000   0.000000
                                        CHANNELS 3 Zrotation Xrotation Yrotation
                                        End Site
                                        {
                                            OFFSET   2.582190   0.000000   0.000000
                                        }
                                    }
                                }
                            }
                            JOINT LeftFinger1
                            {
                                OFFSET   8.364480   0.000000   3.252850
                                CHANNELS 3 Zrotation Xrotation Yrotation
                                JOINT LeftFinger11
                                {
                                    OFFSET   4.646930   0.000000   0.000000
                                    CHANNELS 3 Zrotation Xrotation Yrotation
                                    JOINT LeftFinger12
                                    {
                                        OFFSET   2.323460   0.000000   0.000000
                                        CHANNELS 3 Zrotation Xrotation Yrotation
                                        End Site
                                        {
                                            OFFSET   2.273050   0.000000   0.000000
                                        }
                                    }
                                }
                            }
                            JOINT LeftFinger2
                            {
                                OFFSET   8.364480   0.000016   1.078090
                                CHANNELS 3 Zrotation Xrotation Yrotation
                                JOINT LeftFinger21
                                {
                                    OFFSET   5.111620   0.000000   0.000000
                                    CHANNELS 3 Zrotation Xrotation Yrotation
                                    JOINT LeftFinger22
                                    {
                                        OFFSET   2.788160   0.000017   0.000000
                                        CHANNELS 3 Zrotation Xrotation Yrotation
                                        End Site
                                        {
                                            OFFSET   2.727660   0.000000   0.000000
                                        }
                                    }
                                }
                            }
                            JOINT LeftFinger3
                            {
                                OFFSET   7.899780   0.000015  -1.078090
                                CHANNELS 3 Zrotation Xrotation Yrotation
                                JOINT LeftFinger31
                                {
                                    OFFSET   4.646920   0.000000   0.000000
                                    CHANNELS 3 Zrotation Xrotation Yrotation
                                    JOINT LeftFinger32
                                    {
                                        OFFSET   2.323470   0.000000   0.000000
                                        CHANNELS 3 Zrotation Xrotation Yrotation
                                        End Site
                                        {
                                            OFFSET   2.273050   0.000000   0.000000
                                        }
                                    }
                                }
                            }
                            JOINT LeftFinger4
                            {
                                OFFSET   7.435090   0.000000  -3.252850
                                CHANNELS 3 Zrotation Xrotation Yrotation
                                JOINT LeftFinger41
                                {
                                    OFFSET   3.717550   0.000000   0.000000
                                    CHANNELS 3 Zrotation Xrotation Yrotation
                                    JOINT LeftFinger42
                                    {
                                        OFFSET   1.858760   0.000000   0.000000
                                        CHANNELS 3 Zrotation Xrotation Yrotation
                                        End Site
                                        {
                                            OFFSET   1.818440   0.000000   0.000000
                                        }
                                    }
                                }
                            }
                        }
                    }
                }
            }
            JOINT RightCollar
            {
                OFFSET  -3.911900  19.017000  -0.467062
                CHANNELS 3 Zrotation Xrotation Yrotation
                JOINT RightShoulder
                {
                    OFFSET -10.383700   0.000015   0.000000
                    CHANNELS 3 Zrotation Xrotation Yrotation
                    JOINT RightElbow
                    {
                        OFFSET -26.662100   0.001341   0.000385
                        CHANNELS 3 Zrotation Xrotation Yrotation
                        JOINT RightWrist
                        {
                            OFFSET -28.869000   0.000025  -0.000080
                            CHANNELS 3 Zrotation Xrotation Yrotation
                            JOINT RightFinger0
                            {
                                OFFSET  -2.044650  -2.323490   3.252850
                                CHANNELS 3 Zrotation Xrotation Yrotation
                                JOINT RightFinger01
                                {
                                    OFFSET  -3.088130   0.000000   0.000000
                                    CHANNELS 3 Zrotation Xrotation Yrotation
                                    JOINT RightFinger02
                                    {
                                        OFFSET  -2.639460   0.000000   0.000000
                                        CHANNELS 3 Zrotation Xrotation Yrotation
                                        End Site
                                        {
                                            OFFSET  -2.582190   0.000000   0.000000
                                        }
                                    }
                                }
                            }
                            JOINT RightFinger1
                            {
                                OFFSET  -8.364480   0.000000   3.252850
                                CHANNELS 3 Zrotation Xrotation Yrotation
                                JOINT RightFinger11
                                {
                                    OFFSET  -4.646930   0.000000   0.000000
                                    CHANNELS 3 Zrotation Xrotation Yrotation
                                    JOINT RightFinger12
                                    {
                                        OFFSET  -2.323470   0.000000   0.000000
                                        CHANNELS 3 Zrotation Xrotation Yrotation
                                        End Site
                                        {
                                            OFFSET  -2.273050   0.000000   0.000000
                                        }
                                    }
                                }
                            }
                            JOINT RightFinger2
                            {
                                OFFSET  -8.364480   0.000000   1.078090
                                CHANNELS 3 Zrotation Xrotation Yrotation
                                JOINT RightFinger21
                                {
                                    OFFSET  -5.111610   0.000000   0.000000
                                    CHANNELS 3 Zrotation Xrotation Yrotation
                                    JOINT RightFinger22
                                    {
                                        OFFSET  -2.788160   0.000000   0.000000
                                        CHANNELS 3 Zrotation Xrotation Yrotation
                                        End Site
                                        {
                                            OFFSET  -2.727660   0.000000   0.000000
                                        }
                                    }
                                }
                            }
                            JOINT RightFinger3
                            {
                                OFFSET  -7.899780   0.000000  -1.078090
                                CHANNELS 3 Zrotation Xrotation Yrotation
                                JOINT RightFinger31
                                {
                                    OFFSET  -4.646920   0.000000   0.000000
                                    CHANNELS 3 Zrotation Xrotation Yrotation
                                    JOINT RightFinger32
                                    {
                                        OFFSET  -2.323470   0.000000   0.000000
                                        CHANNELS 3 Zrotation Xrotation Yrotation
                                        End Site
                                        {
                                            OFFSET  -2.273050   0.000000   0.000000
                                        }
                                    }
                                }
                            }
                            JOINT RightFinger4
                            {
                                OFFSET  -7.435090   0.000000  -3.252850
                                CHANNELS 3 Zrotation Xrotation Yrotation
                                JOINT RightFinger41
                                {
                                    OFFSET  -3.717550   0.000000   0.000000
                                    CHANNELS 3 Zrotation Xrotation Yrotation
                                    JOINT RightFinger42
                                    {
                                        OFFSET  -1.858770   0.000000   0.000000
                                        CHANNELS 3 Zrotation Xrotation Yrotation
                                        End Site
                                        {
                                            OFFSET  -1.818440   0.000000   0.000000
                                        }
                                    }
                                }
                            }
                        }
                    }
                }
            }
        }
    }
    JOINT LeftHip
    {
        OFFSET   9.783010   0.000000   0.000000
        CHANNELS 3 Zrotation Xrotation Yrotation
        JOINT LeftKnee
        {
            OFFSET   0.000070 -41.789100   0.000028
            CHANNELS 3 Zrotation Xrotation Yrotation
            JOINT LeftAnkle
            {
                OFFSET   0.000087 -41.133200  -0.000100
                CHANNELS 3 Zrotation Xrotation Yrotation
                JOINT LeftToe
                {
                    OFFSET   0.000000  -6.358960  14.674500
                    CHANNELS 3 Zrotation Xrotation Yrotation
                    End Site
                    {
                        OFFSET   0.000000   0.000000   3.913200
                    }
                }
            }
        }
    }
    JOINT RightHip
    {
        OFFSET  -9.783020   0.000000   0.000000
        CHANNELS 3 Zrotation Xrotation Yrotation
        JOINT RightKnee
        {
            OFFSET   0.000044 -41.789100  -0.000870
            CHANNELS 3 Zrotation Xrotation Yrotation
            JOINT RightAnkle
            {
                OFFSET  -0.000090 -41.133200  -0.000245
                CHANNELS 3 Zrotation Xrotation Yrotation
                JOINT RightToe
                {
                    OFFSET   0.000000  -6.358960  14.674500
                    CHANNELS 3 Zrotation Xrotation Yrotation
                    End Site
                    {
                        OFFSET   0.000000   0.000000   3.913200
                    }
                }
            }
        }
    }
}
MOTION
Frames: 6
Frame Time:   0.016667
  1.404150  89.510400  -0.262636  -0.516630  -2.924130   0.978475   0.736902   2.901300  -0.815246   1.518040   5.791550  -1.671050  -1.416550   0.219496  -0.000741  -2.327170   0.444542   5.305050  -4.958880   0.893299   9.960190 -79.698700   6.000060   2.055330  -0.024329   5.693290 -16.021000  13.858600  -3.350540  -0.695571  38.622900  34.314300 -53.650400 -35.665300   0.006273   0.005353 -13.077400   0.006326   0.003277 -46.102700  -2.734510   2.639580 -37.771800   0.003279   0.001834 -27.692700  -0.007481   0.011303 -42.585700  -3.583990   3.889510 -54.424200   0.000292  -0.005331 -38.064000  -0.008384   0.007089 -33.689500  -5.206790   7.749320 -51.063900  -0.004110   0.009758 -34.008500  -0.011598   0.006856 -44.548300 -10.270700  10.266800 -68.210400   0.000249   0.008093 -45.428100  -0.001353   0.011731   6.758750   2.659080   4.279710  73.662500  -2.781710  -0.180115   3.871570  -4.381670  13.891900 -24.146300   2.826860   4.278430 -41.869900  42.442600  85.424400  28.755800   0.006226  -0.003295   9.377910   0.002162  -0.012903  34.951600   0.122577   0.175366  28.596900  -0.001045   0.004162  20.017800   0.003857   0.002913  29.460600  -2.475940  -4.374270  44.324800   0.008806   0.000518  29.520300   0.000144   0.000154  30.288100  -4.854740  -8.244540  45.957300   0.004498   0.001861  30.607600  -0.007749  -0.000088  43.727900  -6.638770  -6.893310  66.180100   0.000438   0.004221  44.076000   0.002736   0.000992   1.909900   4.164880  -1.771170   0.835522   0.778477  10.450200  -3.734890  -1.805250  -1.734890  -0.000000   0.000000   0.000000  -0.682093   4.751680  -3.140680   0.294692   2.561290 -15.453700   1.141860  -3.718090  -2.065520   0.000000   0.000000  -0.000000
  1.410470  89.510300  -0.262687  -0.516034  -2.959810   0.978236   0.736872   2.918940  -0.809763   1.518000   5.826910  -1.660340  -1.406330   0.225588  -0.000737  -2.310410   0.456895   5.265650  -4.949130   0.893291   9.984290 -79.717400   6.065780   2.008870  -0.009856   5.695980 -16.034400  13.873900  -3.363740  -0.709834  38.581800  34.245900 -53.665800 -35.674000   0.006267   0.005325 -13.079800   0.006314   0.003264 -46.120700  -2.734570   2.635750 -37.786500   0.003270   0.001805 -27.706900  -0.007476   0.011294 -42.638700  -3.584030   3.882230 -54.424200   0.000296  -0.005353 -38.078400  -0.008374   0.007074 -33.708400  -5.207000   7.745030 -51.091800  -0.004116   0.009745 -34.027100  -0.011594   0.006845 -44.562500 -10.291400  10.281700 -68.236500   0.000264   0.008064 -45.445500  -0.001337   0.011730   6.759700   2.646480   4.279640  73.664000  -2.737510  -0.171044   3.855640  -4.391060  13.894900 -24.126600   2.807760   4.304600 -41.768300  42.415100  85.328700  28.843600   0.006209  -0.003305   9.421800   0.002140  -0.012919  34.964000   0.132368   0.189290  28.607100  -0.001062   0.004174  20.025000   0.003850   0.002921  29.448400  -2.516530  -4.447390  44.315100   0.008800   0.000519  29.513800   0.000144   0.000165  30.266000  -4.896080  -8.320590  45.933500   0.004495   0.001868  30.591700  -0.007751  -0.000044  43.706300  -6.697300  -6.957150  66.164700   0.000391   0.004185  44.065700   0.002712   0.001012   1.901440   4.201870  -1.771190   0.834080   0.784490  10.456200  -3.735160  -1.813720  -1.734870  -0.000000   0.000000   0.000000  -0.694475   4.777540  -3.140810   0.301410   2.580830 -15.461800   1.143710  -3.725960  -2.052440   0.000000   0.000000   0.000000
  1.420250  89.510100  -0.262737  -0.514992  -3.021590   0.978022   0.736772   2.948760  -0.799953   1.517760   5.886660  -1.641120  -1.388820   0.236577  -0.000712  -2.281690   0.479158   5.188520  -4.939400   0.893278  10.009900 -79.761500   6.201430   1.933400   0.031258   5.697950 -16.072800  13.888500  -3.432880  -0.724141  38.502500  34.125000 -53.680400 -35.688200   0.006255   0.005269 -13.083800   0.006289   0.003235 -46.150000  -2.734640   2.629370 -37.810500   0.003249   0.001747 -27.730100  -0.007465   0.011272 -42.718800  -3.584100   3.871240 -54.424200   0.000307  -0.005411 -38.100200  -0.008348   0.007036 -33.738000  -5.207290   7.738300 -51.135700  -0.004133   0.009713 -34.056400  -0.011583   0.006815 -44.587600 -10.332300  10.312300 -68.283800   0.000292   0.007997 -45.477100  -0.001305   0.011727   6.762580   2.608460   4.279490  73.671100  -2.643420  -0.161967   3.824610  -4.404200  13.914800 -24.106000   2.775640   4.330730 -41.667800  42.378600  85.234600  28.931400   0.006163  -0.003314   9.465680   0.002090  -0.012947  34.983200   0.152682   0.218227  28.622900  -0.001107   0.004203  20.036000   0.003835   0.002942  29.436000  -2.557110  -4.520520  44.305400   0.008785   0.000522  29.507400   0.000144   0.000193  30.243700  -4.937390  -8.396650  45.909700   0.004487   0.001889  30.575800  -0.007758   0.000000  43.684600  -6.755800  -7.021010  66.149300   0.000297   0.004108  44.055400   0.002661   0.001061   1.888650   4.264890  -1.771260   0.831657   0.795808  10.462300  -3.735620  -1.828620  -1.734820   0.000000   0.000000   0.000000  -0.708074   4.816000  -3.141000   0.314612   2.622740 -15.475800   1.147220  -3.741850  -2.036100   0.000000   0.000000   0.000000
  1.426270  89.509900  -0.259321  -0.513234  -3.072800   0.979503   0.735794   2.971450  -0.789774   1.515640   5.932200  -1.621010  -1.373860   0.250075  -0.000646  -2.257230   0.506420   5.103430  -4.939480   0.888023  10.011600 -79.829000   6.372950   1.868520   0.113328   5.675510 -16.111000  13.855100  -3.643500  -0.656295  38.393600  34.006400 -53.625100 -35.701600   0.006246   0.005203 -13.088000   0.006258   0.003197 -46.177300  -2.734100   2.623030 -37.832700   0.003215   0.001671 -27.751600  -0.007448   0.011239 -42.774200  -3.584180   3.863690 -54.424200   0.000324  -0.005502 -38.115400  -0.008307   0.006976 -33.762100  -5.207450   7.732860 -51.171400  -0.004160   0.009663 -34.080100  -0.011568   0.006769 -44.623400 -10.378200  10.340100 -68.342600   0.000327   0.007896 -45.516300  -0.001261   0.011722   6.775670   2.540510   4.288180  73.688700  -2.518460  -0.194947   3.785120  -4.410150  13.959700 -24.105000   2.752830   4.329190 -41.693100  42.373700  85.265100  28.914100   0.006083  -0.003278   9.457020   0.002018  -0.012975  34.991200   0.170809   0.244270  28.629500  -0.001178   0.004247  20.040700   0.003818   0.002973  29.437300  -2.552180  -4.511640  44.306700   0.008763   0.000527  29.508300   0.000145   0.000236  30.264200  -4.931110  -8.379710  45.938500   0.004473   0.001921  30.595000  -0.007769   0.000000  43.707400  -6.746140  -7.005640  66.181300   0.000174   0.003997  44.076700   0.002588   0.001137   1.881730   4.314030  -1.772080   0.830652   0.808775  10.457400  -3.733080  -1.842490  -1.734740  -0.000000   0.000000   0.000000  -0.709103   4.827240  -3.136630   0.312961   2.683350 -15.487100   1.151270  -3.761280  -2.032310   0.000000   0.000000  -0.000000
  1.431790  89.509800  -0.253602  -0.510569  -3.132980   0.983520   0.734324   2.998640  -0.780628   1.512660   5.986740  -1.603030  -1.358270   0.258675  -0.000573  -2.231530   0.523817   5.003280  -4.943070   0.869573  10.011800 -79.902000   6.559510   1.823370   0.160028   5.589350 -16.217200  13.805800  -3.798210  -0.526104  38.363800  33.894400 -53.643800 -35.709500   0.006235   0.005130 -13.090500   0.006221   0.003158 -46.193300  -2.733550   2.619240 -37.845700   0.003173   0.001604 -27.764200  -0.007427   0.011200 -42.802600  -3.584240   3.859850 -54.424100   0.000347  -0.005618 -38.123200  -0.008255   0.006899 -33.775400  -5.207520   7.729850 -51.191100  -0.004194   0.009602 -34.093300  -0.011548   0.006712 -44.635500 -10.432400  10.392800 -68.380200   0.000359   0.007781 -45.541300  -0.001218   0.011716   6.802640   2.455590   4.311460  73.713200  -2.382610  -0.262221   3.755830  -4.410340  14.093500 -24.108300   2.722500   4.318880 -41.773800  42.365600  85.369100  28.792700   0.005993  -0.003203   9.396360   0.001937  -0.013002  35.005400   0.206753   0.295469  28.641200  -0.001265   0.004302  20.048900   0.003794   0.003011  29.446300  -2.517680  -4.449440  44.316000   0.008736   0.000533  29.514500   0.000148   0.000290  30.316600  -4.886730  -8.288820  46.006100   0.004456   0.001961  30.640000  -0.007783  -0.000000  43.773700  -6.683380  -6.925920  66.267600   0.000061   0.003880  44.134200   0.002512   0.001229   1.875340   4.373150  -1.773200   0.829867   0.820927  10.447900  -3.728680  -1.856660  -1.734690  -0.000000   0.000000   0.000000  -0.709923   4.852580  -3.125680   0.310457   2.740260 -15.501400   1.155540  -3.782400  -2.031810   0.000000   0.000000  -0.000000
  1.437080  89.509900  -0.249082  -0.507616  -3.210630   0.989687   0.733188   3.035620  -0.775452   1.510720   6.060770  -1.593280  -1.341640   0.256155  -0.000525  -2.203910   0.518754   4.890870  -4.978550   0.829429   9.964870 -79.959700   6.737230   1.812860   0.117753   5.399550 -16.439800  13.768100  -3.790880  -0.370330  38.395800  33.860600 -53.911600 -35.664200   0.006212   0.005045 -13.033200   0.006177   0.003128 -46.154900  -2.743780   2.632040 -37.814800   0.003124   0.001578 -27.734300  -0.007405   0.011160 -42.683200  -3.584230   3.876180 -54.424100   0.000373  -0.005755 -38.090600  -0.008195   0.006808 -33.718700  -5.205630   7.742740 -51.106800  -0.004235   0.009535 -34.037100  -0.011525   0.006648 -44.487900 -10.510400  10.535400 -68.191200   0.000370   0.007665 -45.415400  -0.001187   0.011711   6.844380   2.360590   4.350470  73.741700  -2.239550  -0.347081   3.758140  -4.400730  14.350000 -24.137000   2.674500   4.285110 -41.914100  42.227400  85.552600  28.452900   0.005917  -0.003077   9.226490   0.001859  -0.013023  35.043300   0.278371   0.396432  28.672500  -0.001359   0.004364  20.070700   0.003763   0.003054  29.479300  -2.418980  -4.270170  44.354000   0.008704   0.000539  29.539800   0.000149   0.000348  30.404300  -4.775250  -8.074680  46.112000   0.004436   0.002004  30.710600  -0.007798   0.000066  43.891200  -6.528390  -6.740140  66.413800   0.000012   0.003771  44.231500   0.002445   0.001326   1.866910   4.454470  -1.773800   0.828475   0.828564  10.438700  -3.725640  -1.869850  -1.734820   0.000000   0.000000   0.000000  -0.716995   4.929010  -3.109020   0.318288   2.761780 -15.520400   1.158790  -3.801460  -2.033290  -0.000000   0.000000   0.000000
